<svg width="34" height="18" viewBox="0 0 34 18" fill="none" xmlns="http://www.w3.org/2000/svg">
<path d="M3.50004 9.00008C3.50004 6.15008 5.81671 3.83341 8.66671 3.83341H15.3334V0.666748H8.66671C4.06671 0.666748 0.333374 4.40008 0.333374 9.00008C0.333374 13.6001 4.06671 17.3334 8.66671 17.3334H15.3334V14.1667H8.66671C5.81671 14.1667 3.50004 11.8501 3.50004 9.00008ZM10.3334 10.6667H23.6667V7.33341H10.3334V10.6667ZM25.3334 0.666748H18.6667V3.83341H25.3334C28.1834 3.83341 30.5 6.15008 30.5 9.00008C30.5 11.8501 28.1834 14.1667 25.3334 14.1667H18.6667V17.3334H25.3334C29.9334 17.3334 33.6667 13.6001 33.6667 9.00008C33.6667 4.40008 29.9334 0.666748 25.3334 0.666748Z" fill="#0A0A0A"/>
</svg>
